<svg xmlns="http://www.w3.org/2000/svg" xmlns:xlink="http://www.w3.org/1999/xlink" fill="none" version="1.1" width="23" height="23" viewBox="0 0 23 23"><g><g><path d="M0,11.5C0,14.75876,0.00815976,16.447200000000002,0.485438,17.750700000000002C1.29299,19.956200000000003,3.04381,21.707,5.24933,22.5146C6.55284,22.9918,8.24124,23,11.5,23C14.7588,23,16.4472,22.9918,17.7507,22.5146C19.9562,21.707,21.707,19.956200000000003,22.5146,17.750700000000002C22.9918,16.447200000000002,23,14.75876,23,11.5L23,10.75C23,9.120619999999999,22.9959,8.27642,22.7573,7.62467C22.3535,6.52191,21.4781,5.6464929999999995,20.3753,5.242719C19.7236,5.00407977,18.8794,5,17.25,5L5.75,5C4.12062,5,3.27642,5.00407977,2.62467,5.242719C1.52191,5.6464929999999995,0.646493,6.52191,0.242719,7.62467C0.00407977,8.27642,0,9.120619999999999,0,10.75L0,11.5Z" fill="#A3A3A3" fill-opacity="1"/></g><g><path d="M15.4453,3.33205L15.4453,3.33205Q13.44697,2,11.5,2Q9.55278,2,7.5547,3.33205C7.39043,3.44156,7.19743,3.5,7,3.5C6.447715,3.5,6,3.05228,6,2.5C6,2.16565,6.167101,1.85342,6.4453,1.66795Q8.94722,5.96046e-8,11.5,0Q14.05215,0,16.5535,1.66714L16.5546,1.66786C16.832900000000002,1.85342,17,2.16565,17,2.5C17,3.05228,16.552300000000002,3.5,16,3.5C15.80257,3.5,15.60957,3.44156,15.4453,3.33205Z" fill-rule="evenodd" fill="#A3A3A3" fill-opacity="1"/></g><g transform="matrix(1,0,0,-1,0,28)"><path d="M16.552,16.39401L16.552799999999998,16.39443Q16.7639,16.5,17,16.5Q17.0985,16.5,17.1951,16.48078Q17.2917,16.461570000000002,17.3827,16.42388Q17.4737,16.38619,17.5556,16.33147Q17.6375,16.27675,17.7071,16.20711Q17.776699999999998,16.13746,17.8315,16.05557Q17.886200000000002,15.97368,17.9239,15.88268Q17.9616,15.79169,17.980800000000002,15.69509Q18,15.59849,18,15.5Q18,15.36072,17.9619,15.22673Q17.9239,15.09275,17.8507,14.974269Q17.7774,14.855787,17.674599999999998,14.761825Q17.5718,14.667863,17.447200000000002,14.605573Q14.23607,13,11.5,13Q8.76414,13,5.553284,14.605324L5.552786,14.605573Q5.4282070000000004,14.667862,5.325391,14.761825Q5.222575,14.855787,5.149349,14.974269Q5.076123,15.09275,5.038062,15.22673Q5,15.36072,5,15.5Q5,15.59849,5.019215,15.69509Q5.03843,15.79169,5.076121,15.88268Q5.113812,15.97368,5.16853,16.05557Q5.223249,16.13746,5.292893,16.20711Q5.362537,16.27675,5.44443,16.33147Q5.526322,16.38619,5.617317,16.42388Q5.708311,16.461570000000002,5.80491,16.48078Q5.9015086,16.5,6,16.5Q6.236068,16.5,6.447214,16.39443Q9.23607,15,11.5,15Q13.76359,15,16.552,16.39401Z" fill-rule="evenodd" fill="#FFFFFF" fill-opacity="1"/></g></g></svg>