<svg xmlns="http://www.w3.org/2000/svg" xmlns:xlink="http://www.w3.org/1999/xlink" fill="none" version="1.1" width="19" height="20" viewBox="0 0 19 20"><g><g><path d="M17.3165,18.2913Q19,16.5854,19,14.18L19,4.3Q19,2.52448,17.7557,1.263621Q16.5087,0,14.75,0L5,0Q3.35399,0,2.1371599999999997,1.122929Q1.073569,2.1044400000000003,0.823554,3.49185Q0.5702252,3.5835,0.364426,3.79205Q0,4.1613299999999995,0,4.68Q0,5.65599,0.75,5.87598L0.75,8.84137Q0.5399299,8.9342,0.364426,9.11205Q0,9.48133,0,10Q0,10.976,0.75,11.196L0.75,14.124Q0,14.344,0,15.32Q0,16.346,0.828767,16.5365Q1.084462,17.9056,2.1371599999999997,18.8771Q3.35399,20,5,20L13.25,20Q15.6303,20,17.3165,18.2913ZM17.044,1.96603Q18,2.93482,18,4.3L18,14.18Q18,16.175,16.6047,17.5889Q15.2122,19,13.25,19L5,19Q3.7449,19,2.81534,18.1422Q1.8891,17.2874,1.76638,16.031399999999998L1.72228,15.58L1.2500010000000001,15.58Q1,15.58,1,15.32Q1,15.2117,1.076199,15.1345Q1.149674,15.06,1.25,15.06L1.75,15.06L1.75,10.26L1.25,10.26Q1,10.26,1,10Q1,9.89167,1.076199,9.81445Q1.149674,9.74,1.25,9.74L1.75,9.74L1.75,4.94L1.25,4.94Q1,4.94,1,4.68Q1,4.57167,1.076199,4.4944500000000005Q1.149674,4.42,1.25,4.42L1.72228,4.42L1.76638,3.96862Q1.8891,2.71258,2.81534,1.85782Q3.7449,1,5,1L14.75,1Q16.090600000000002,1,17.044,1.96603Z" fill-rule="evenodd" fill="#999CA2" fill-opacity="1"/></g><g><path d="M7.038460000000001,6.3C7.038460000000001,7.848,8.36269,9.1,10,9.1C11.63731,9.1,12.96154,7.848,12.96154,6.3C12.96154,4.752,11.63731,3.5,10,3.5C8.36269,3.5,7.038460000000001,4.752,7.038460000000001,6.3ZM4.5,14.024C4.5,14.84,5.227692,15.5,6.12038,15.5L13.87961,15.5C14.7723,15.5,15.5,14.836,15.5,14.024L15.4958,14.024L15.4958,13.876C15.4619,11.904,13.50731,10.3,11.133849999999999,10.3L8.86192,10.3C6.49269,10.3,4.5338459,11.904,4.5,13.888L4.5,14.024Z" fill="#999CA2" fill-opacity="1"/></g></g></svg>