<svg xmlns="http://www.w3.org/2000/svg" xmlns:xlink="http://www.w3.org/1999/xlink" fill="none" version="1.1" width="24" height="24" viewBox="0 0 24 24"><defs><clipPath id="master_svg0_17_06661/17_06363"><rect x="0" y="0" width="24" height="24" rx="0"/></clipPath></defs><g clip-path="url(#master_svg0_17_06661/17_06363)"><g><path d="M11.11995849609375,20.72001953125C5.83995849609375,20.72001953125,1.51995849609375,16.400019531250003,1.51995849609375,11.12001953125C1.51995849609375,5.84001953125,5.83995849609375,1.52001953125,11.11995849609375,1.52001953125C16.399958496093753,1.52001953125,20.71995849609375,5.84001953125,20.71995849609375,11.12001953125C20.71995849609375,16.400019531250003,16.399958496093753,20.72001953125,11.11995849609375,20.72001953125ZM11.11995849609375,19.12001953125C15.51995849609375,19.12001953125,19.11995849609375,15.52001953125,19.11995849609375,11.12001953125C19.11995849609375,6.72001953125,15.51995849609375,3.12001953125,11.11995849609375,3.12001953125C6.71995849609375,3.12001953125,3.11995849609375,6.72001953125,3.11995849609375,11.12001953125C3.11995849609375,15.52001953125,6.71995849609375,19.12001953125,11.11995849609375,19.12001953125ZM17.03995849609375,20.40001953125C16.71995849609375,20.08001953125,16.79995849609375,19.52001953125,17.11995849609375,19.28001953125C17.43995849609375,19.04001953125,17.99995849609375,19.04001953125,18.23995849609375,19.36001953125L19.75995849609375,21.20001953125C20.07995849609375,21.52001953125,19.99995849609375,22.08001953125,19.67995849609375,22.32001953125C19.35995849609375,22.56001953125,18.79995849609375,22.56001953125,18.55995849609375,22.24001953125L17.03995849609375,20.40001953125Z" fill="#9A9B9D" fill-opacity="1" style="mix-blend-mode:passthrough"/></g></g></svg>