<svg xmlns="http://www.w3.org/2000/svg" xmlns:xlink="http://www.w3.org/1999/xlink" fill="none" version="1.1" width="22" height="23" viewBox="0 0 22 23"><g><g><path d="M8.83333,2.00421C9.33907,2.00027,9.89208,2,10.5,2L11.5,2C12.0418,2,12.54,2.00021,13,2.00305L13,0.916667C13,0.410406,13.4104,0,13.9167,0C14.4229,0,14.8333,0.410406,14.8333,0.916667L14.8333,2.04186C16.0903,2.09882,16.9755,2.2332,17.7247,2.55009C19.3997,3.25853,20.7415,4.60035,21.4499,6.27529C21.9923,7.55769,22,9.23841,22,12.5C22,15.7616,21.9923,17.4423,21.4499,18.7247C20.7415,20.3997,19.3997,21.7415,17.7247,22.4499C16.4423,22.9923,14.7616,23,11.5,23L10.5,23C7.23841,23,5.55769,22.9923,4.27529,22.4499C2.60035,21.7415,1.25853,20.3997,0.550094,18.7247C0.00768518,17.4423,0,15.7616,0,12.5C0,9.23841,0.00768518,7.55769,0.550094,6.27529C1.25853,4.60035,2.60035,3.25853,4.27529,2.55009C4.99096,2.24739,5.83068,2.11122,7,2.04999L7,0.916667C7,0.410406,7.41041,0,7.91667,0C8.42293,0,8.83333,0.410406,8.83333,0.916667L8.83333,2.00421Z" fill-rule="evenodd" fill="#A3A3A3" fill-opacity="1"/></g><g transform="matrix(0,-1,1,0,-3.7021484375,16.5361328125)"><rect x="6.4169921875" y="10.119140625" width="1.840000033378601" height="9.166666984558105" rx="0.9200000166893005" fill="#FFFFFF" fill-opacity="1"/></g><g transform="matrix(0,-1,1,0,-8.3037109375,21.1376953125)"><rect x="6.4169921875" y="14.720703125" width="1.840000033378601" height="7.333333492279053" rx="0.9200000166893005" fill="#FFFFFF" fill-opacity="1"/></g></g></svg>