<svg xmlns="http://www.w3.org/2000/svg" xmlns:xlink="http://www.w3.org/1999/xlink" fill="none" version="1.1" width="19" height="19" viewBox="0 0 19 19"><g><g><path d="M15.9587,0L3.04116,0Q1.76766,0,0.874881,0.9775750000000001Q0,1.93555,0,3.28252L0.00012200000000001099,15.7174Q0.00012200000000001099,17.0644,0.8749720000000001,18.0224Q1.76775,19,3.04124,19L15.9589,19Q17.2324,19,18.1251,18.0224Q19,17.0644,19,15.7174L18.9999,3.28251Q18.9999,1.93555,18.125,0.9775750000000001Q17.2322,0,15.9587,0ZM1.61329,1.65193Q2.2086699999999997,1,3.04116,1L15.9587,1Q16.7912,1,17.3866,1.65193Q17.9999,2.32347,17.9999,3.28251L18,15.7174Q18,16.6765,17.3867,17.348Q16.7913,18,15.9589,18L3.04124,18Q2.20878,18,1.6134,17.348Q1.000122,16.6765,1.000122,15.7174L1,3.28251Q1,2.32347,1.61329,1.65193Z" fill-rule="evenodd" fill="#999CA2" fill-opacity="1"/></g><g><path d="M3.5,13.5L9.5,13.5C9.5,12.06836,8.5238,10.866209999999999,7.2085,10.54346C8.26538,10.23438,9.038450000000001,9.24512,9.038450000000001,8.07324C9.038450000000001,6.65088,7.90308,5.5,6.5,5.5C5.09692,5.5,3.961548,6.65088,3.961548,8.07324C3.961548,9.24512,4.73462,10.23438,5.7915,10.54541C4.476196,10.868649999999999,3.5,12.06836,3.5,13.5Z" fill="#999CA2" fill-opacity="1" style="mix-blend-mode:passthrough"/></g><g><path d="M11.50634766,6.419922125C11.50634766,6.875683125,11.828322,7.244143125,12.22644,7.244143125L16.08057,7.244143125C16.47868,7.244143125,16.800539999999998,6.875683125,16.800539999999998,6.419922125C16.800539999999998,5.964164125,16.47657,5.595703125,16.08057,5.595703125L12.22644,5.595703125C11.828322,5.595703125,11.50634766,5.964164125,11.50634766,6.419922125ZM11.5,9.674803125C11.5,10.130563125,11.821975,10.499023125,12.220093,10.499023125L15.01538,10.499023125C15.413499999999999,10.499023125,15.73535,10.130563125,15.73535,9.674803125C15.73535,9.219043124999999,15.41138,8.850583125,15.01538,8.850583125L12.220093,8.850583125C11.821975,8.850583125,11.5,9.219043124999999,11.5,9.674803125ZM11.5,12.580563125000001C11.5,13.036323125,11.821975,13.404783125,12.220093,13.404783125L14.168330000000001,13.404783125C14.56645,13.404783125,14.88831,13.036323125,14.88831,12.580563125000001C14.88831,12.124813125,14.56434,11.756343125,14.168330000000001,11.756343125L12.220093,11.756343125C11.821975,11.756343125,11.5,12.124813125,11.5,12.580563125000001Z" fill="#999CA2" fill-opacity="1"/></g></g></svg>