<svg xmlns="http://www.w3.org/2000/svg" xmlns:xlink="http://www.w3.org/1999/xlink" fill="none" version="1.1" width="18" height="18" viewBox="0 0 18 18"><defs><clipPath id="master_svg0_17_16986"><rect x="0" y="0" width="18" height="18" rx="0"/></clipPath></defs><g clip-path="url(#master_svg0_17_16986)"><g><path d="M16.970666162109374,6.735699296875L9.333896162109374,2.737180796875C9.124706162109375,2.627645296875,8.875106162109375,2.627645296875,8.665916162109376,2.737180796875L1.029326162109375,6.735699296875C0.811859162109375,6.849749296875,0.667530962109375,7.066779296875,0.646466192109375,7.311429296875C0.640526172109375,7.348509296875,0.636566162109375,7.386219296875,0.636566162109375,7.425009296875L0.636566162109375,12.825029296875C0.636566162109375,13.222629296875,0.958921162109375,13.545029296875,1.356566162109375,13.545029296875C1.754216162109375,13.545029296875,2.076566162109375,13.222629296875,2.076566162109375,12.825029296875L2.076566162109375,8.441559296874999L3.859106162109375,9.167859296875001C3.807116162109375,9.269149296875,3.779996162109375,9.381289296875,3.779996162109375,9.495009296875L3.779996162109375,13.095029296875C3.779996162109375,13.303529296875,3.868646162109375,13.491429296875,4.010486162109375,13.622929296875C4.729046162109375,14.809829296875,6.973646162109375,15.345029296875,8.999996162109374,15.345029296875C11.026366162109374,15.345029296875,13.270866162109375,14.809829296875,13.989366162109375,13.622929296875C14.136566162109375,13.486829296875,14.220066162109376,13.295429296875,14.219866162109374,13.095029296875L14.219866162109374,9.495009296875C14.219866162109374,9.381209296875,14.192766162109375,9.269059296875,14.140666162109374,9.167859296875001L16.908366162109374,8.040249296875C17.167866162109377,7.934479296875,17.342466162109375,7.687749296875,17.355766162109376,7.407849296875C17.369166162109376,7.127949296875,17.218866162109375,6.865719296875,16.970666162109374,6.735699296875ZM12.335066162109374,9.920889296875L9.268466162109375,11.152989296875C9.095886162109375,11.222439296875,8.903106162109376,11.222319296875,8.730626162109376,11.152629296875L5.677286162109375,9.920529296875C5.636456162109375,9.903739296874999,5.597256162109375,9.883229296875001,5.560196162109375,9.859239296875C5.546376162109375,9.850449296875,5.532866162109375,9.841169296875,5.519696162109375,9.831429296875001C5.514206162109375,9.827469296875,5.508986162109375,9.823239296875,5.503676162109375,9.819099296874999C5.491356162109375,9.809599296875,5.479356162109375,9.799689296875,5.467676162109375,9.789399296875C5.461826162109375,9.784179296875,5.456426162109375,9.778689296875001,5.450756162109375,9.773199296875C5.439686162109375,9.762669296875,5.428526162109375,9.752139296875,5.418266162109375,9.740889296875C5.404346162109375,9.725779296875,5.391036162109375,9.710109296875,5.378396162109375,9.693909296874999C5.373806162109375,9.688059296875,5.369846162109375,9.681759296875,5.365526162109375,9.675819296875C5.355716162109375,9.662489296875,5.346356162109375,9.648829296875,5.337446162109375,9.634869296875C5.334026162109375,9.629289296875001,5.330876162109375,9.623709296874999,5.327636162109375,9.618129296875C5.318386162109375,9.602509296874999,5.309736162109375,9.586539296875,5.301716162109375,9.570249296875L5.295506162109375,9.557289296875C5.210116162109375,9.376639296875,5.204146162109375,9.168519296875001,5.279036162109375,8.983269296875001C5.427876162109375,8.614529296875,5.847446162109375,8.436239296875,6.216206162109375,8.585019296875L8.470616162109376,9.495009296875L9.000536162109375,9.708849296875L9.532796162109374,9.495009296875L11.798166162109375,8.584839296875C12.167166162109375,8.436519296875,12.586466162109375,8.615439296875,12.734766162109375,8.984439296875C12.800566162109375,9.148189296875,12.803666162109375,9.330479296875,12.743366162109375,9.496359296875C12.735166162109374,9.519279296875,12.725766162109375,9.541749296875,12.715166162109375,9.563679296875L12.715166162109375,9.563769296875C12.694266162109376,9.607469296875,12.668966162109376,9.648959296874999,12.639766162109375,9.687609296875C12.636766162109375,9.691659296874999,12.633366162109375,9.695529296875,12.630266162109375,9.699489296875C12.605666162109374,9.730949296875,12.578266162109376,9.760139296875,12.548566162109376,9.786699296875C12.541166162109375,9.793359296875,12.533766162109375,9.800109296875,12.525966162109375,9.806589296875C12.516066162109375,9.814959296875,12.505366162109375,9.822699296875001,12.494866162109375,9.830529296875C12.486966162109375,9.836379296875,12.479366162109375,9.842589296875001,12.471166162109375,9.848079296875L12.472366162109376,9.847629296874999C12.429366162109375,9.876929296875,12.383366162109375,9.901489296874999,12.335066162109374,9.920889296875Z" fill="#5279F2" fill-opacity="1" style="mix-blend-mode:passthrough"/></g></g></svg>